<svg id="Sq" xmlns="http://www.w3.org/2000/svg" viewBox="0 0 2421.91 1024"><defs><style>.cls-1{fill:#07ebb5;}.cls-2{fill:#262626;}</style></defs><path class="cls-1" d="M1988.71,346.73H1261.29a173.37,173.37,0,1,1,0-346.73h727.42a173.37,173.37,0,1,1,0,346.73Z"/><path class="cls-2" d="M2248.54,1022H1521.11a173.37,173.37,0,0,1,0-346.73h727.43a173.37,173.37,0,1,1,0,346.73Z"/><path class="cls-2" d="M895.77,1022a173.3,173.3,0,0,1-152.35-90.39L375.15,256.4a173.36,173.36,0,0,1,304.4-166l368.27,675.22a173.42,173.42,0,0,1-152,256.4Z"/><circle class="cls-1" cx="176.98" cy="845.03" r="176.98"/></svg>