<?xml version="1.0" encoding="utf-8"?>
<!-- Generator: Adobe Illustrator 27.5.0, SVG Export Plug-In . SVG Version: 6.00 Build 0)  -->
<svg version="1.1" id="Sq" xmlns="http://www.w3.org/2000/svg" xmlns:xlink="http://www.w3.org/1999/xlink" x="0px" y="0px"
	 viewBox="0 0 17.3 7.4" style="enable-background:new 0 0 17.3 7.4;" xml:space="preserve">
<style type="text/css">
	.st0{fill:#07EBB5;}
	.st1{fill:#FFFFFF;}
</style>
<path class="st0" d="M14.2,2.5H9C8.4,2.5,7.8,2,7.8,1.3c0-0.7,0.5-1.2,1.2-1.2c0,0,0,0,0,0h5.1c0.7,0,1.2,0.5,1.2,1.2
	C15.4,2,14.9,2.5,14.2,2.5C14.2,2.5,14.2,2.5,14.2,2.5z"/>
<path class="st1" d="M16,7.3h-5.1c-0.7,0-1.2-0.6-1.2-1.2c0-0.7,0.5-1.2,1.2-1.2H16c0.7,0,1.2,0.5,1.2,1.2S16.7,7.3,16,7.3
	C16,7.3,16,7.3,16,7.3z"/>
<path class="st1" d="M6.5,7.3C6,7.3,5.6,7.1,5.4,6.7L2.8,1.9C2.4,1.3,2.7,0.5,3.3,0.2s1.3-0.1,1.7,0.5l2.6,4.8
	C7.9,6.1,7.6,6.8,7,7.2C6.9,7.2,6.7,7.3,6.5,7.3L6.5,7.3z"/>
<circle class="st0" cx="1.4" cy="6" r="1.3"/>
</svg>
